<mxfile host="app.diagrams.net" modified="2024-01-24T05:35:10.159Z" agent="Mozilla/5.0 (Windows NT 10.0; Win64; x64) AppleWebKit/537.36 (KHTML, like Gecko) Chrome/120.0.0.0 Safari/537.36 Edg/120.0.0.0" etag="H6wVMBt9NUgxTnVPBFaK" version="22.1.20" type="github">
  <diagram name="Страница — 1" id="EDvs0Lds6ZlA9_bFShbe">
    <mxGraphModel dx="1653" dy="1202" grid="1" gridSize="10" guides="1" tooltips="1" connect="1" arrows="1" fold="1" page="1" pageScale="1" pageWidth="827" pageHeight="1169" math="0" shadow="0">
      <root>
        <mxCell id="0" />
        <mxCell id="1" parent="0" />
        <mxCell id="1XUtxzAATJQAfW5mQbM8-10" style="edgeStyle=orthogonalEdgeStyle;rounded=0;orthogonalLoop=1;jettySize=auto;html=1;exitX=0.5;exitY=1;exitDx=0;exitDy=0;" edge="1" parent="1" source="1XUtxzAATJQAfW5mQbM8-2" target="1XUtxzAATJQAfW5mQbM8-9">
          <mxGeometry relative="1" as="geometry" />
        </mxCell>
        <mxCell id="1XUtxzAATJQAfW5mQbM8-19" style="edgeStyle=orthogonalEdgeStyle;rounded=0;orthogonalLoop=1;jettySize=auto;html=1;exitX=0.5;exitY=1;exitDx=0;exitDy=0;" edge="1" parent="1" source="1XUtxzAATJQAfW5mQbM8-1" target="1XUtxzAATJQAfW5mQbM8-17">
          <mxGeometry relative="1" as="geometry" />
        </mxCell>
        <mxCell id="1XUtxzAATJQAfW5mQbM8-1" value="&lt;b&gt;&lt;font face=&quot;Times New Roman&quot; style=&quot;font-size: 25px;&quot;&gt;Администрация&lt;/font&gt;&lt;/b&gt;" style="rounded=0;whiteSpace=wrap;html=1;" vertex="1" parent="1">
          <mxGeometry x="-230" y="90" width="220" height="60" as="geometry" />
        </mxCell>
        <mxCell id="1XUtxzAATJQAfW5mQbM8-2" value="&lt;b&gt;&lt;font face=&quot;Times New Roman&quot; style=&quot;font-size: 25px;&quot;&gt;Методист&lt;/font&gt;&lt;/b&gt;" style="rounded=0;whiteSpace=wrap;html=1;" vertex="1" parent="1">
          <mxGeometry x="30" y="90" width="220" height="60" as="geometry" />
        </mxCell>
        <mxCell id="1XUtxzAATJQAfW5mQbM8-16" style="edgeStyle=orthogonalEdgeStyle;rounded=0;orthogonalLoop=1;jettySize=auto;html=1;exitX=0.5;exitY=1;exitDx=0;exitDy=0;entryX=0.5;entryY=0;entryDx=0;entryDy=0;" edge="1" parent="1" source="1XUtxzAATJQAfW5mQbM8-3" target="1XUtxzAATJQAfW5mQbM8-12">
          <mxGeometry relative="1" as="geometry" />
        </mxCell>
        <mxCell id="1XUtxzAATJQAfW5mQbM8-3" value="&lt;b&gt;&lt;font face=&quot;Times New Roman&quot; style=&quot;font-size: 25px;&quot;&gt;Преподаватель&lt;/font&gt;&lt;/b&gt;" style="rounded=0;whiteSpace=wrap;html=1;" vertex="1" parent="1">
          <mxGeometry x="30" y="380" width="220" height="60" as="geometry" />
        </mxCell>
        <mxCell id="1XUtxzAATJQAfW5mQbM8-4" value="&lt;b&gt;&lt;font face=&quot;Times New Roman&quot; style=&quot;font-size: 25px;&quot;&gt;Директор&lt;/font&gt;&lt;/b&gt;" style="rounded=0;whiteSpace=wrap;html=1;" vertex="1" parent="1">
          <mxGeometry x="590" y="90" width="220" height="60" as="geometry" />
        </mxCell>
        <mxCell id="1XUtxzAATJQAfW5mQbM8-5" value="&lt;font face=&quot;Times New Roman&quot;&gt;&lt;span style=&quot;font-size: 25px;&quot;&gt;&lt;b&gt;Бухгалтерия&lt;/b&gt;&lt;/span&gt;&lt;/font&gt;" style="rounded=0;whiteSpace=wrap;html=1;" vertex="1" parent="1">
          <mxGeometry x="304" y="524" width="220" height="60" as="geometry" />
        </mxCell>
        <mxCell id="1XUtxzAATJQAfW5mQbM8-6" value="&lt;b&gt;&lt;font face=&quot;Times New Roman&quot; style=&quot;font-size: 25px;&quot;&gt;Заведующий учебной частью&lt;/font&gt;&lt;/b&gt;" style="rounded=0;whiteSpace=wrap;html=1;" vertex="1" parent="1">
          <mxGeometry x="320" y="90" width="220" height="60" as="geometry" />
        </mxCell>
        <mxCell id="1XUtxzAATJQAfW5mQbM8-15" style="edgeStyle=orthogonalEdgeStyle;rounded=0;orthogonalLoop=1;jettySize=auto;html=1;exitX=1;exitY=0.5;exitDx=0;exitDy=0;entryX=0;entryY=0.5;entryDx=0;entryDy=0;" edge="1" parent="1" source="1XUtxzAATJQAfW5mQbM8-7" target="1XUtxzAATJQAfW5mQbM8-14">
          <mxGeometry relative="1" as="geometry" />
        </mxCell>
        <mxCell id="1XUtxzAATJQAfW5mQbM8-7" value="&lt;b&gt;&lt;font face=&quot;Times New Roman&quot; style=&quot;font-size: 25px;&quot;&gt;Ученик&lt;/font&gt;&lt;/b&gt;" style="rounded=0;whiteSpace=wrap;html=1;" vertex="1" parent="1">
          <mxGeometry x="30" y="680" width="220" height="60" as="geometry" />
        </mxCell>
        <mxCell id="1XUtxzAATJQAfW5mQbM8-11" style="edgeStyle=orthogonalEdgeStyle;rounded=0;orthogonalLoop=1;jettySize=auto;html=1;exitX=0.5;exitY=1;exitDx=0;exitDy=0;" edge="1" parent="1" source="1XUtxzAATJQAfW5mQbM8-9" target="1XUtxzAATJQAfW5mQbM8-3">
          <mxGeometry relative="1" as="geometry" />
        </mxCell>
        <mxCell id="1XUtxzAATJQAfW5mQbM8-9" value="&lt;font style=&quot;font-size: 20px;&quot; face=&quot;Times New Roman&quot;&gt;&lt;b&gt;Планирование учебного процесса&lt;/b&gt;&lt;/font&gt;" style="ellipse;whiteSpace=wrap;html=1;" vertex="1" parent="1">
          <mxGeometry x="50" y="200" width="180" height="120" as="geometry" />
        </mxCell>
        <mxCell id="1XUtxzAATJQAfW5mQbM8-13" style="edgeStyle=orthogonalEdgeStyle;rounded=0;orthogonalLoop=1;jettySize=auto;html=1;exitX=0.5;exitY=1;exitDx=0;exitDy=0;entryX=0.5;entryY=0;entryDx=0;entryDy=0;" edge="1" parent="1" source="1XUtxzAATJQAfW5mQbM8-12" target="1XUtxzAATJQAfW5mQbM8-7">
          <mxGeometry relative="1" as="geometry" />
        </mxCell>
        <mxCell id="1XUtxzAATJQAfW5mQbM8-12" value="&lt;font style=&quot;font-size: 20px;&quot; face=&quot;Times New Roman&quot;&gt;&lt;b&gt;организация учебного процесса&lt;/b&gt;&lt;/font&gt;" style="ellipse;whiteSpace=wrap;html=1;" vertex="1" parent="1">
          <mxGeometry x="50" y="480" width="180" height="120" as="geometry" />
        </mxCell>
        <mxCell id="1XUtxzAATJQAfW5mQbM8-18" style="edgeStyle=orthogonalEdgeStyle;rounded=0;orthogonalLoop=1;jettySize=auto;html=1;entryX=0.5;entryY=1;entryDx=0;entryDy=0;" edge="1" parent="1" source="1XUtxzAATJQAfW5mQbM8-14" target="1XUtxzAATJQAfW5mQbM8-17">
          <mxGeometry relative="1" as="geometry">
            <Array as="points">
              <mxPoint x="414" y="780" />
              <mxPoint x="-120" y="780" />
            </Array>
          </mxGeometry>
        </mxCell>
        <mxCell id="1XUtxzAATJQAfW5mQbM8-14" value="&lt;font face=&quot;Times New Roman&quot;&gt;&lt;span style=&quot;font-size: 25px;&quot;&gt;&lt;b&gt;Данные о учениках&lt;/b&gt;&lt;/span&gt;&lt;/font&gt;" style="rounded=0;whiteSpace=wrap;html=1;" vertex="1" parent="1">
          <mxGeometry x="304" y="680" width="220" height="60" as="geometry" />
        </mxCell>
        <mxCell id="1XUtxzAATJQAfW5mQbM8-17" value="&lt;font style=&quot;font-size: 20px;&quot; face=&quot;Times New Roman&quot;&gt;&lt;b&gt;Составление&amp;nbsp; договоров&lt;/b&gt;&lt;/font&gt;" style="ellipse;whiteSpace=wrap;html=1;" vertex="1" parent="1">
          <mxGeometry x="-210" y="210" width="180" height="120" as="geometry" />
        </mxCell>
      </root>
    </mxGraphModel>
  </diagram>
</mxfile>
